<?xml version="1.0" encoding="UTF-8"?>
<svg width="140px" height="35px" viewBox="0 0 140 35" version="1.1" xmlns="http://www.w3.org/2000/svg" xmlns:xlink="http://www.w3.org/1999/xlink">
    <!-- Generator: Sketch 55.2 (78181) - https://sketchapp.com -->
    <title>logo / secondary</title>
    <desc>Created with Sketch.</desc>
    <g id="1_HOME" stroke="none" stroke-width="1" fill="none" fill-rule="evenodd">
        <g id="homeXL" transform="translate(-135.000000, -29.000000)" fill="#FFFFFF">
            <g id="Teaser">
                <g id="ghost-header">
                    <g id="logo-/-EA_logo_primary" transform="translate(135.000000, 29.000000)">
                        <path d="M55.8360681,23.1428105 L47.3070628,23.1428105 L47.3070628,11.6900737 L55.8360681,11.6900737 L55.8360681,13.7841789 L49.4404136,13.7841789 L49.4404136,16.4191263 L55.6081099,16.4191263 L55.6081099,18.4325474 L49.4404136,18.4325474 L49.4404136,21.0162842 L55.8360681,21.0162842 L55.8360681,23.1428105 Z M62.6154398,14.0949053 L60.5000471,18.9713263 L64.7300995,18.9713263 L62.6154398,14.0949053 Z M65.5946545,20.9829053 L59.6347592,20.9829053 L58.6602565,23.1425895 L56.3326649,23.1425895 L61.4426649,11.6898526 L63.7841832,11.6898526 L68.8941832,23.1425895 L66.5533979,23.1425895 L65.5946545,20.9829053 Z M76.7302251,14.3581053 C76.3402775,13.7041579 75.265356,13.0807895 74.0302775,13.0807895 C72.4342042,13.0807895 71.6678691,13.7502105 71.6678691,14.6008947 C71.6678691,15.6033684 72.839911,15.8793158 74.2065602,16.044 C76.5847277,16.3365263 78.7987068,16.9602632 78.7987068,19.6917368 C78.7987068,22.2434211 76.5517435,23.3394737 74.0090209,23.3394737 C71.6825288,23.3394737 69.8947801,22.6195789 69.0492827,20.5265789 L70.8381309,19.5933684 C71.3420576,20.8533684 72.6617958,21.4107895 74.0449372,21.4107895 C75.3939948,21.4107895 76.6631571,20.9344211 76.6631571,19.6917368 C76.6631571,18.6118947 75.5424241,18.1705263 74.0302775,18.0058421 C71.6986545,17.7273158 69.5532094,17.1054211 69.5532094,14.5382632 C69.5532094,12.1803684 71.8628429,11.2154737 73.9632094,11.1988947 C75.7362984,11.1988947 77.5764555,11.7073158 78.4402775,13.475 L76.7302251,14.3581053 Z M83.4079686,13.5557947 L79.7983874,13.5557947 L79.7983874,11.5913737 L89.1714241,11.5913737 L89.1714241,13.5557947 L85.5607435,13.5557947 L85.5607435,23.0452158 L83.4079686,23.0452158 L83.4079686,13.5557947 Z M98.8772356,13.9976053 L96.7622094,18.8740263 L100.992995,18.8740263 L98.8772356,13.9976053 Z M101.85645,20.8856053 L95.8998534,20.8856053 L94.9220524,23.0452895 L92.5955602,23.0452895 L97.7051937,11.5925526 L100.048178,11.5925526 L105.161476,23.0452895 L102.815927,23.0452895 L101.85645,20.8856053 Z M114.086293,14.3892368 C113.319592,13.6535 112.180901,13.2449211 111.188073,13.2449211 C108.747236,13.2449211 107.266607,15.1109737 107.266607,17.4659211 C107.266607,19.3478158 108.354356,21.2930789 111.188073,21.2930789 C112.081948,21.2930789 112.863309,21.0978158 113.757916,20.3786579 L113.757916,18.3505 L110.846503,18.3505 L110.846503,16.4173947 L115.727812,16.4173947 L115.727812,21.2459211 C114.603414,22.5383421 113.191686,23.3079737 111.188073,23.3079737 C106.907812,23.3079737 105.164775,20.4751842 105.164775,17.4659211 C105.164775,14.2429737 107.16912,11.2657632 111.188073,11.2657632 C112.717812,11.2657632 114.24755,11.8552368 115.419958,13.0161316 L114.086293,14.3892368 Z M117.508743,23.0448105 L117.508743,11.5920737 L119.639895,11.5920737 L119.639895,23.0448105 L117.508743,23.0448105 Z M123.810503,11.5913368 L123.810503,21.0501789 L129.671445,21.0501789 L129.671445,23.0451789 L121.662492,23.0451789 L121.662492,11.5913368 L123.810503,11.5913368 Z M139.683131,23.0449579 L131.152293,23.0449579 L131.152293,11.5922211 L139.683131,11.5922211 L139.683131,13.6863263 L133.286743,13.6863263 L133.286743,16.3212737 L139.456272,16.3212737 L139.456272,18.3350632 L133.286743,18.3350632 L133.286743,20.9188 L139.683131,20.9188 L139.683131,23.0449579 Z M34.8168272,34.9998893 L12.6559844,34.9998893 C13.5674399,16.9758796 23.2578641,5.85524918 34.8168272,0.000259490468 L34.8168272,34.9998893 Z M7.32984303e-05,-7.36842105e-05 L34.8156865,-7.36842105e-05 C19.003019,3.8891854 2.75099835,15.1068066 0.0460692363,34.9999263 L7.32984303e-05,34.9999263 L7.32984303e-05,-7.36842105e-05 Z" id="EA_logo_primary"></path>
                    </g>
                </g>
            </g>
        </g>
    </g>
</svg>